<svg width="96" height="31" viewBox="0 0 96 31" fill="none" xmlns="http://www.w3.org/2000/svg">
<g clip-path="url(#clip0_78_1168)">
<path d="M7.54495 -8.28723e-05C6.85466 -8.28723e-05 5.74311 0.141405 5.11446 0.431272C3.30364 1.26601 0 3.49454 0 8.64851C0 12.1983 1.56712 14.199 3.13424 15.3126C4.4054 16.2159 6.39298 16.6517 7.94295 16.6517H44.3929C44.3929 16.6517 45.9922 16.7806 45.9922 15.4898C45.9922 15.4898 42.7298 13.6861 42.7298 8.32742C42.7298 2.96873 45.9922 1.48412 45.9922 1.48412C45.9922 1.48412 45.9922 -0.000488281 44.6488 -0.000488281H7.54495V-8.28723e-05Z" fill="#235BA0"/>
<path d="M5.19141 4.18823H7.0406L7.76313 8.57881C7.89784 9.52747 8.0448 10.4883 8.1795 11.4491H8.22849C8.41218 10.4883 8.60813 9.51531 8.80407 8.57881L9.85725 4.18823H11.4003L12.4535 8.57881C12.6494 9.50314 12.8331 10.4761 13.029 11.4491H13.0903C13.225 10.4761 13.3597 9.51531 13.4944 8.57881L14.2047 4.18823H15.9314L14.2537 13.1879H12.0004L10.9839 8.73692C10.837 8.03151 10.7022 7.33826 10.592 6.65717H10.543C10.4206 7.33826 10.2981 8.03151 10.1512 8.73692L9.15921 13.1879H6.94263L5.19141 4.18823Z" fill="white"/>
<path d="M21.5403 10.8776H18.6012L17.9644 13.1884H16.1274L19.0298 4.18872H21.1607L24.0753 13.1884H22.1771L21.5403 10.8776ZM21.1484 9.4789L20.879 8.49376C20.5973 7.55726 20.3524 6.52347 20.083 5.55049H20.034C19.8013 6.53563 19.5319 7.55726 19.2625 8.49376L18.9931 9.4789H21.1484Z" fill="white"/>
<path d="M25.1406 4.18823H26.9898L29.6228 8.98017L30.529 10.9261H30.5902C30.4923 9.98963 30.3575 8.79773 30.3575 7.7761V4.18823H32.072V13.1879H30.2351L27.6144 8.37205L26.6959 6.43825H26.6347C26.7204 7.41123 26.8551 8.54232 26.8551 9.57612V13.1883H25.1406V4.18823Z" fill="white"/>
<path d="M36.1132 5.68419H33.5659V4.18823H40.4969V5.68419H37.9252V13.1879H36.1132V5.68419Z" fill="white"/>
<path d="M26.8276 22.5351H24.2437V21.2654H34.9592V22.5351H28.4809L27.9298 24.3647H34.4448H34.555V29.6472C34.555 29.9841 34.4509 30.2707 34.2428 30.5075C34.0346 30.7442 33.775 30.8626 33.4651 30.8626H31.0771L31.4935 29.7429H32.8038C32.8777 29.7429 32.9406 29.7137 32.994 29.6545C33.0467 29.5953 33.0732 29.5248 33.0732 29.4429V25.6203H27.5502L25.9704 30.8079H24.3167L26.8276 22.5351Z" fill="#235BA0"/>
<path d="M45.5867 30.9719C45.3989 30.9719 45.2254 30.9318 45.0662 30.8519C44.907 30.7721 44.7666 30.6614 44.6441 30.5203C44.5212 30.3792 44.4253 30.215 44.3563 30.0269C44.2865 29.8392 44.2522 29.6365 44.2522 29.4204V25.1474H43.5293V23.7512H44.2522H45.6965H45.721V29.3219C45.721 29.4439 45.7577 29.5477 45.8312 29.6325C45.9051 29.7168 46.2202 29.7593 46.3345 29.7593H47.057L46.5794 30.9723H45.5867V30.9719ZM47.5387 21.2656H53.2153C53.8039 21.2656 54.2811 21.7395 54.2811 22.3241V22.6266V29.5011C54.2811 29.7123 54.2464 29.9093 54.1771 30.0922C54.1077 30.2758 54.0117 30.436 53.8893 30.5734C53.7668 30.7112 53.6239 30.8191 53.4606 30.8965C53.2974 30.9748 53.1218 31.0088 52.9341 30.9999L52.2785 30.8625V30.0018C52.665 30.0018 52.8524 29.9941 52.8524 29.212V23.4642C52.8524 22.7421 52.3295 22.5427 52.0074 22.5427H47.5383C47.2718 22.5427 47.0554 22.3278 47.0554 22.0631V21.7452C47.0558 21.4801 47.2722 21.2656 47.5387 21.2656ZM52.0405 24.3678H47.0558V23.1354H51.4645C52.0405 23.1354 52.0405 23.3673 52.0405 23.6535V24.3678ZM52.0405 27.8049C52.0405 28.0222 52.0037 28.2249 51.9303 28.413C51.8568 28.6019 51.7555 28.7665 51.6253 28.908C51.4955 29.0499 51.3445 29.1606 51.1714 29.2404C50.9983 29.3211 50.8126 29.3604 50.6134 29.3604H47.1366V24.9338H51.4286C51.7666 24.9338 52.0405 25.1981 52.0405 25.524V27.8049ZM50.7354 26.064H48.3119V28.0542H49.9843C50.1941 28.0542 50.3725 28.0169 50.5179 27.9423C50.6632 27.8673 50.7354 27.7765 50.7354 27.6687V26.064ZM45.7634 22.235C45.7634 22.7705 45.3262 23.2043 44.7874 23.2043C44.2482 23.2043 43.8114 22.7701 43.8114 22.235C43.8114 21.6998 44.2486 21.2656 44.7874 21.2656C45.3262 21.2656 45.7634 21.6994 45.7634 22.235Z" fill="#235BA0"/>
<path d="M73.5671 31.0134H62.8516V29.6285H66.683C67.0357 29.6285 67.3215 29.3447 67.3215 28.9944V27.4348C67.3215 27.0797 67.0316 26.7914 66.6736 26.7914H63.2557V25.4066H66.6822C67.0353 25.4066 67.3215 25.1224 67.3215 24.7717V23.2692C67.3215 22.9275 67.0422 22.6502 66.6981 22.6502H62.9863V21.2649H73.5671V22.6502H69.7462C69.3944 22.6502 69.1094 22.9336 69.1094 23.2826V24.7749C69.1094 25.1236 69.3939 25.4061 69.745 25.4061H73.1625V26.791H69.7364C69.3899 26.791 69.109 27.0699 69.109 27.4141V28.9977C69.109 29.3459 69.3931 29.6285 69.7442 29.6285H73.5667V31.0134H73.5671Z" fill="#235BA0"/>
<path d="M71.4423 9.66478V12.4953C71.4423 12.844 71.1578 13.1266 70.8067 13.1266H70.2369C69.878 13.1266 69.5874 12.8379 69.5874 12.4816V4.63852C69.5874 4.28581 69.8752 4 70.2303 4H73.8454C75.0648 4 75.9134 4.16419 76.3927 4.49257C76.7237 4.71149 76.9785 5.00136 77.1568 5.36136C77.3356 5.72177 77.4246 6.11623 77.4246 6.54516C77.4246 7.41192 77.2152 8.08247 76.7976 8.5568C76.5364 8.83977 76.1922 9.05423 75.7657 9.19977C76.1053 9.32788 76.3621 9.46207 76.5368 9.60356C76.7107 9.74505 76.8678 9.95262 77.0066 10.2263C77.1111 10.4452 77.187 10.6552 77.2356 10.8559C77.283 11.0565 77.3205 11.3533 77.3463 11.7453C77.3663 11.9959 77.3887 12.218 77.4136 12.4114C77.463 12.7929 77.1621 13.127 76.7748 13.127H76.013C75.693 13.127 75.4195 12.8967 75.3742 12.5821C75.3444 12.3762 75.3138 12.1244 75.2823 11.8268C75.2387 11.2978 75.1497 10.892 75.0146 10.609C74.8794 10.3264 74.677 10.103 74.4071 9.93843C74.0675 9.74708 73.5756 9.65586 72.9315 9.66478H71.4423ZM71.4423 7.51449H74.0418C74.4769 7.51449 74.7864 7.46098 74.9688 7.35354C75.2476 7.19624 75.3868 6.92138 75.3868 6.52813C75.3868 6.09232 75.1778 5.8138 74.7598 5.69218C74.6117 5.6492 74.3724 5.62772 74.0414 5.62772H71.4419V7.51449H71.4423Z" fill="#F1AE40"/>
<path d="M78.9141 4.6442C78.9141 4.28825 79.2043 4 79.5627 4H82.6108C86.5255 4 86.9738 6.90151 86.9738 8.58396C86.9738 11.2763 85.6242 13.1266 82.6108 13.1266H79.5611C79.2039 13.1266 78.9145 12.8391 78.9145 12.4844V4.6442H78.9141ZM80.769 6.1661V11.093H82.6108C83.4207 11.093 83.9824 10.9361 84.2959 10.6224C84.4878 10.4233 84.6425 10.144 84.76 9.78397C84.8776 9.42437 84.9364 9.04167 84.9364 8.63545C84.9364 8.18382 84.8666 7.7703 84.7274 7.3953C84.5878 7.0203 84.4049 6.74056 84.1783 6.55691C83.8473 6.29705 83.3248 6.16651 82.6108 6.16651H80.769V6.1661Z" fill="#F1AE40"/>
<path d="M88.2275 12.4894V11.7958C88.2275 11.4374 88.5198 11.1471 88.8807 11.1471H92.2117C92.8477 11.1471 93.2702 11.0835 93.4788 10.9558C93.7833 10.764 93.936 10.5864 93.936 10.2033C93.936 9.75657 93.7118 9.29602 92.4333 9.29602H90.8135C89.8294 9.29602 89.1199 9.10913 88.6843 8.73494C88.4145 8.49777 88.203 8.20142 88.0508 7.84547C87.8981 7.48952 87.8218 7.10641 87.8218 6.69614C87.8218 6.05762 88.0006 5.47383 88.3573 4.94477C88.7056 4.43395 89.2632 4.13314 90.0294 4.04192C90.291 4.01476 90.678 4.00098 91.1924 4.00098H94.8834C95.2328 4.00098 95.5161 4.28233 95.5161 4.62936V5.00234C95.5161 5.34856 95.5651 5.88045 94.8846 5.88045H91.6104C90.4625 5.8468 89.86 6.22667 89.86 6.71641C89.86 7.21465 90.0163 7.68168 91.4536 7.68168H92.8513C93.5653 7.68168 94.0968 7.74574 94.445 7.87304C95.0634 8.09196 95.49 8.47507 95.7251 9.02237C95.908 9.46021 95.9995 9.93008 95.9995 10.4316C95.9995 10.9882 95.8774 11.4852 95.6337 11.9231C95.2941 12.5433 94.7846 12.9171 94.1054 13.0452C93.7739 13.1 93.2734 13.1271 92.6027 13.1271H88.8688C88.5149 13.1267 88.2275 12.8413 88.2275 12.4894Z" fill="#F1AE40"/>
<path d="M65.8941 3.89478H62.0724C60.7996 3.89478 59.7583 4.92897 59.7583 6.19304V10.8285C59.7583 12.0926 60.7996 13.1267 62.0724 13.1267H65.8941C67.1669 13.1267 68.2082 12.0926 68.2082 10.8285V6.19304C68.2087 4.92897 67.1673 3.89478 65.8941 3.89478ZM66.1521 11.0928H61.8149V6.13223H66.1521V11.0928Z" fill="#F1AE40"/>
<path d="M50.0247 12.4679L47.1672 5.22118C47.1329 5.05253 47.1162 4.9005 47.1162 4.76509C47.1497 4.15698 47.4734 3.8363 48.0857 3.80225C48.4596 3.80225 48.7491 4.02238 48.9532 4.46104L50.9942 9.8327L52.9842 4.46104C53.2218 4.02238 53.528 3.80225 53.9027 3.80225C54.515 3.87035 54.8546 4.19103 54.9232 4.76509C54.9232 4.9005 54.8889 5.05253 54.8212 5.22118L51.9637 12.4679C51.7596 12.9414 51.4359 13.1599 50.9942 13.1267C50.5174 13.1267 50.1945 12.9073 50.0247 12.4679Z" fill="#F1AE40"/>
<path d="M53.7669 12.4679L50.9094 5.22118C50.8751 5.05253 50.8584 4.9005 50.8584 4.76509C50.8919 4.15698 51.2156 3.8363 51.8279 3.80225C52.2018 3.80225 52.4912 4.02238 52.6953 4.46104L54.7364 9.8327L56.7264 4.46104C56.964 4.02238 57.2702 3.80225 57.6449 3.80225C58.2572 3.87035 58.5968 4.19103 58.6654 4.76509C58.6654 4.9005 58.6311 5.05253 58.5634 5.22118L55.7059 12.4679C55.5018 12.9414 55.1781 13.1599 54.7364 13.1267C54.2596 13.1267 53.9367 12.9073 53.7669 12.4679Z" fill="#F1AE40"/>
</g>
<defs>
<clipPath id="clip0_78_1168">
<rect width="96" height="31" fill="white"/>
</clipPath>
</defs>
</svg>