<svg width="20" height="20" viewBox="0 0 20 20" fill="none" xmlns="http://www.w3.org/2000/svg">
<path d="M10.0002 18.3334C9.55813 18.3334 9.13421 18.1578 8.82165 17.8453C8.50909 17.5327 8.3335 17.1088 8.3335 16.6667H11.6668C11.6668 17.1088 11.4912 17.5327 11.1787 17.8453C10.8661 18.1578 10.4422 18.3334 10.0002 18.3334ZM16.6668 15.8334H3.3335V14.1667L5.00016 13.3334V8.75008C5.00016 5.86508 6.18433 3.99425 8.3335 3.48341V1.66675H11.6668V3.48341C13.816 3.99341 15.0002 5.86341 15.0002 8.75008V13.3334L16.6668 14.1667V15.8334ZM10.0002 4.79175C9.49968 4.75943 8.99909 4.8531 8.54416 5.06419C8.08923 5.27528 7.69447 5.59705 7.396 6.00008C6.87728 6.82055 6.62278 7.7804 6.66683 8.75008V14.1667H13.3335V8.75008C13.3775 7.78041 13.123 6.82057 12.6043 6.00008C12.3059 5.59705 11.9111 5.27528 11.4562 5.06419C11.0012 4.8531 10.5006 4.75943 10.0002 4.79175Z" fill="black"/>
</svg>